<svg viewBox="0 0 1456 214" fill="none" xmlns="http://www.w3.org/2000/svg">
    <g clip-path="url(#clip0_1364_39)">
        <path d="M-0.00390625 151.717H23.8911C27.8434 176.737 45.2479 191.603 70.8109 191.603C101.16 191.603 119.145 173.074 119.145 141.601C119.145 110.128 101.45 91.3092 71.6811 91.3092C46.4082 91.3092 31.5056 105.922 25.0514 126.989L1.73655 123.906L17.6907 1.42188H128.355V21.0745H39.5915L27.6621 95.1164H28.6048C36.5819 82.0993 59.4254 71.8741 82.3051 72.2004C121.067 72.7443 144.091 97.7634 144.091 140.477C144.091 185.439 116.86 212.126 71.0647 212.126C31.1793 212.126 4.49227 189.645 -0.00390625 151.717Z" fill="white"/>
        <path d="M253.05 102.469C294.023 105.66 301.42 135.901 301.42 153.378C301.42 191.015 274.733 213.496 228.938 213.496C187.638 213.496 162.075 188.477 160.117 146.089H183.432C184.556 175.859 201.417 193.553 229.228 193.553C258.997 193.553 276.401 178.651 276.401 153.378C276.401 128.105 258.417 113.202 227.234 113.202H221.323V94.3835C252.216 90.7213 270.491 76.1087 270.491 54.7881C270.491 33.4675 255.045 19.9427 228.901 19.9427C204.172 19.9427 188.436 37.9274 186.768 67.9865H163.997C166.318 25.2729 191.59 0 231.766 0C271.941 0 295.184 18.6011 295.184 48.2976C295.184 77.9942 278.178 96.2327 253.087 101.273V102.469H253.05Z" fill="white"/>
        <path d="M787.302 139.572H811.124C813.372 173.221 834.113 192.837 867.472 192.837C902.498 192.837 922.985 178.261 922.985 153.024C922.985 122.167 894.122 117.707 863.846 112.667C829.653 107.337 792.922 101.463 792.922 58.8219C792.886 21.2571 820.661 0.226562 867.182 0.226562C913.703 0.226562 939.229 26.5872 941.767 70.8601H917.945C916.277 39.1693 897.204 20.6769 866.348 20.6769C835.491 20.6769 817.288 34.1292 817.288 57.4078C817.288 84.0585 843.649 88.2646 872.512 92.7245C907.828 98.3448 947.641 104.509 947.641 151.32C947.641 190.299 917.655 213.287 867.182 213.287C819.79 213.287 790.094 186.093 787.266 139.536L787.302 139.572Z" fill="white"/>
        <path d="M586.242 3.01562L545.414 187.431L498.204 3.01562H487.834H477.573H467.202L419.993 187.431L379.164 3.01562H353.094L400.775 210.492H414.082H425.105H435.294L482.685 23.3209L530.113 210.492H540.301H551.324H564.632L612.313 3.01562H586.242Z" fill="white"/>
        <path d="M658.615 190.876V98.8857C665.759 108.567 679.03 114.912 695.201 114.695L758.438 114.332V94.7159L658.615 94.8247V22.632H768.228V3.01562H634.793V210.492H771.31V190.876H658.615Z" fill="white"/>
        <path d="M1105.8 3.01562H953.84V22.632H1037.06C1024.62 31.7331 1017.58 48.9201 1017.87 69.8781V210.456H1041.88V22.632H1105.8V3.01562Z" fill="white"/>
        <path d="M1154.57 151.717H1178.47C1182.42 176.737 1199.83 191.603 1225.39 191.603C1255.74 191.603 1273.72 173.074 1273.72 141.601C1273.72 110.128 1256.03 91.3092 1226.26 91.3092C1200.99 91.3092 1186.08 105.922 1179.63 126.989L1156.31 123.906L1172.27 1.42188H1282.93V21.0745H1194.17L1182.24 95.1164H1183.18C1191.16 82.0993 1214 71.8741 1236.88 72.2004C1275.64 72.7443 1298.67 97.7634 1298.67 140.477C1298.67 185.439 1271.44 212.126 1225.64 212.126C1185.76 212.126 1159.07 189.645 1154.57 151.717Z" fill="white"/>
        <path d="M1407.63 102.469C1448.6 105.66 1456 135.901 1456 153.378C1456 191.015 1429.31 213.496 1383.52 213.496C1342.22 213.496 1316.65 188.477 1314.7 146.089H1338.01C1339.13 175.859 1355.99 193.553 1383.81 193.553C1413.58 193.553 1430.98 178.651 1430.98 153.378C1430.98 128.105 1412.99 113.202 1381.81 113.202H1375.9V94.3835C1406.79 90.7213 1425.07 76.1087 1425.07 54.7881C1425.07 33.4675 1409.62 19.9427 1383.48 19.9427C1358.75 19.9427 1343.01 37.9274 1341.35 67.9865H1318.58C1320.82 25.2729 1346.1 0 1386.27 0C1426.45 0 1449.69 18.6011 1449.69 48.2976C1449.69 77.9942 1432.68 96.2327 1407.59 101.273V102.469H1407.63Z" fill="white"/>
    </g>
    <defs>
        <clipPath id="clip0_1364_39">
            <rect width="1456" height="213.496" fill="white"/>
        </clipPath>
    </defs>
</svg>
